<?xml version="1.0" encoding="utf-8"?>
<!-- Generator: Adobe Illustrator 24.2.3, SVG Export Plug-In . SVG Version: 6.00 Build 0)  -->
<svg version="1.1" id="Layer_1" xmlns="http://www.w3.org/2000/svg" xmlns:xlink="http://www.w3.org/1999/xlink" x="0px" y="0px"
	 viewBox="0 0 1839 597" style="enable-background:new 0 0 1839 597;" xml:space="preserve">
<style type="text/css">
	.st0{fill:#032A00;}
	.st1{fill:url(#SVGID_1_);}
	.st2{fill:url(#SVGID_2_);}
	.st3{fill:url(#SVGID_3_);}
	.st4{fill:url(#SVGID_4_);}
	.st5{fill:#FFFFFF;}
</style>
<g>
	<g>
		<path class="st0" d="M1573.85,275.55c-0.76-3.07-2.66-5.66-5.36-7.29c-2.7-1.63-5.88-2.12-8.95-1.36
			c-3.07,0.76-5.65,2.66-7.29,5.36s-2.12,5.88-1.36,8.95c1.33,5.39,6.17,9,11.48,9c0.93,0,1.88-0.11,2.83-0.34
			c5.38-1.33,9-6.17,9-11.48C1574.19,277.44,1574.08,276.49,1573.85,275.55z M1564.5,287.02c-4.77,1.17-9.6-1.75-10.77-6.51
			c-0.57-2.31-0.21-4.7,1.03-6.73c1.23-2.03,3.18-3.47,5.49-4.04c0.71-0.18,1.43-0.26,2.15-0.26c1.6,0,3.18,0.44,4.59,1.29
			c1.02,0.61,1.88,1.41,2.57,2.34c0.68,0.93,1.18,1.99,1.47,3.15C1572.18,281.01,1569.26,285.85,1564.5,287.02z"/>
	</g>
	<g>
		<path class="st0" d="M1558.62,264.62c-0.66,0-1.25-0.45-1.42-1.11l-1.65-6.7c-0.19-0.78,0.29-1.58,1.07-1.77
			c0.78-0.19,1.58,0.29,1.77,1.07l1.65,6.7c0.19,0.78-0.29,1.58-1.07,1.77C1558.85,264.61,1558.73,264.62,1558.62,264.62z"/>
	</g>
	<g>
		<path class="st0" d="M1551.51,268.54c-0.38,0-0.77-0.15-1.05-0.45l-4.78-4.98c-0.56-0.58-0.54-1.51,0.04-2.07
			c0.58-0.56,1.51-0.54,2.07,0.04l4.78,4.98c0.56,0.58,0.54,1.51-0.04,2.07C1552.24,268.4,1551.88,268.54,1551.51,268.54z"/>
	</g>
	<g>
		<path class="st0" d="M1547.32,275.48c-0.13,0-0.27-0.02-0.41-0.06l-6.63-1.92c-0.78-0.22-1.22-1.04-1-1.81
			c0.22-0.78,1.04-1.22,1.81-1l6.63,1.92c0.78,0.22,1.22,1.04,1,1.81C1548.53,275.06,1547.95,275.48,1547.32,275.48z"/>
	</g>
	<g>
		<path class="st0" d="M1540.45,285.24c-0.66,0-1.25-0.45-1.42-1.11c-0.19-0.78,0.29-1.58,1.07-1.77l6.7-1.65
			c0.78-0.19,1.58,0.29,1.77,1.07c0.19,0.78-0.29,1.58-1.07,1.77l-6.7,1.65C1540.68,285.23,1540.57,285.24,1540.45,285.24z"/>
	</g>
	<g>
		<path class="st0" d="M1546.09,295.47c-0.38,0-0.77-0.15-1.05-0.45c-0.56-0.58-0.54-1.51,0.04-2.07l4.98-4.78
			c0.58-0.56,1.51-0.54,2.07,0.04c0.56,0.58,0.54,1.51-0.04,2.07l-4.98,4.78C1546.82,295.34,1546.45,295.47,1546.09,295.47z"/>
	</g>
	<g>
		<path class="st0" d="M1556.09,301.52c-0.13,0-0.27-0.02-0.41-0.06c-0.78-0.22-1.22-1.04-1-1.81l1.92-6.63
			c0.22-0.78,1.04-1.22,1.81-1c0.78,0.22,1.22,1.04,1,1.81l-1.92,6.63C1557.31,301.1,1556.72,301.52,1556.09,301.52z"/>
	</g>
	<g>
		<path class="st0" d="M1567.77,301.75c-0.66,0-1.25-0.45-1.42-1.11l-1.65-6.7c-0.19-0.78,0.29-1.58,1.07-1.77
			c0.78-0.19,1.58,0.29,1.77,1.07l1.65,6.7c0.19,0.78-0.29,1.58-1.07,1.77C1568,301.74,1567.88,301.75,1567.77,301.75z"/>
	</g>
	<g>
		<path class="st0" d="M1578,296.12c-0.38,0-0.77-0.15-1.05-0.45l-4.78-4.98c-0.56-0.58-0.54-1.51,0.04-2.07s1.51-0.54,2.07,0.04
			l4.78,4.98c0.56,0.58,0.54,1.51-0.04,2.07C1578.73,295.98,1578.37,296.12,1578,296.12z"/>
	</g>
	<g>
		<path class="st0" d="M1584.05,286.12c-0.13,0-0.27-0.02-0.41-0.06l-6.63-1.92c-0.78-0.22-1.22-1.04-1-1.81
			c0.22-0.78,1.04-1.22,1.81-1l6.63,1.92c0.78,0.22,1.22,1.04,1,1.81C1585.26,285.7,1584.68,286.12,1584.05,286.12z"/>
	</g>
	<g>
		<path class="st0" d="M1577.58,276.09c-0.66,0-1.25-0.45-1.42-1.11c-0.19-0.78,0.29-1.58,1.07-1.77l6.7-1.65
			c0.78-0.19,1.58,0.29,1.77,1.07c0.19,0.78-0.29,1.58-1.07,1.77l-6.7,1.65C1577.81,276.08,1577.7,276.09,1577.58,276.09z"/>
	</g>
	<g>
		<path class="st0" d="M1573.67,268.98c-0.38,0-0.77-0.15-1.05-0.45c-0.56-0.58-0.54-1.51,0.04-2.07l4.98-4.78
			c0.58-0.56,1.51-0.54,2.07,0.04c0.56,0.58,0.54,1.51-0.04,2.07l-4.98,4.78C1574.4,268.85,1574.03,268.98,1573.67,268.98z"/>
	</g>
	<g>
		<path class="st0" d="M1566.73,264.79c-0.13,0-0.27-0.02-0.41-0.06c-0.78-0.22-1.22-1.04-1-1.81l1.92-6.63
			c0.22-0.78,1.04-1.22,1.81-1c0.78,0.22,1.22,1.04,1,1.81l-1.92,6.63C1567.95,264.37,1567.36,264.79,1566.73,264.79z"/>
	</g>
</g>
<linearGradient id="SVGID_1_" gradientUnits="userSpaceOnUse" x1="612.7902" y1="173.9017" x2="593.2129" y2="521.7761">
	<stop  offset="0" style="stop-color:#FBB03B"/>
	<stop  offset="1" style="stop-color:#032A00"/>
</linearGradient>
<path class="st1" d="M710.51,387.97c-1.76-25.95-25.86-54.63-58.24-54.85c-37.67-0.26-75.33-0.19-113,0.16
	c-5.38,0.03-11.17,1.54-16,3.9c-21.67,10.78-33.99,28.87-36.16,52.61c-1.73,18.53-1.09,37.28-1.22,55.91c0,3.01,1.02,6.24,2.3,8.99
	c6.59,14.21,17.95,22.95,33.25,24.71c13.6,1.54,27.49,0.74,41.22,1.38c4.83,0.22,6.69-1.25,8.13-6.02
	c7.78-25.6,37.47-36.26,57.76-20.99c8.77,6.59,13.95,15.39,15.04,26.82c14.59,0,28.55,0.48,42.47-0.13
	c14.56-0.61,24.07-9.57,24.51-24.1C711.31,433.57,712.01,410.65,710.51,387.97z M591.95,399.74c0,4.8-3.87,8.67-8.67,8.67h-37.06
	c-4.8,0-8.67-3.87-8.67-8.67v-24.26c0-4.8,3.87-8.67,8.67-8.67h37.06c4.8,0,8.67,3.87,8.67,8.67V399.74z M682.25,397.18
	c-0.19,6.88-3.62,10.24-10.37,10.34c-5.92,0.06-11.84,0-17.76,0c-6.11,0-12.19,0.1-18.27-0.03c-5.54-0.1-8.64-2.66-8.9-8.1
	c-0.38-8-0.45-16.03-0.06-24c0.29-5.82,3.33-8.42,9.18-8.48c12-0.16,24-0.16,36.03-0.03c6.85,0.1,10.18,3.58,10.24,10.46
	C682.45,383.93,682.41,390.56,682.25,397.18z"/>
<linearGradient id="SVGID_2_" gradientUnits="userSpaceOnUse" x1="464.5147" y1="165.5572" x2="444.9373" y2="513.4315">
	<stop  offset="0" style="stop-color:#FBB03B"/>
	<stop  offset="1" style="stop-color:#032A00"/>
</linearGradient>
<path class="st2" d="M729.74,493.12v-50.21c8.51,0.96,16.58,1.86,24.67,2.75c0.13-0.54,0.29-1.09,0.45-1.66
	c-3.23-3.42-6.43-6.85-10.24-10.91c15.39,2.88,29.83,7.65,43.87-1.89c-16.38-12-35.2-20.1-49.28-36.61
	c13.82,6.72,26.91,9.54,41.38,2.24c-15.65-11.3-33.15-18.69-44.42-34.24c11.39,4.61,22.62,7.58,35.3,0.83
	c-14.91-9.66-29.79-17.79-40.8-33.09c10.78,4.13,20.26,7.52,31.81,2.62c-14.24-8.86-26.37-17.92-34.11-32.19
	c16.7,4.9,16.9,4.93,22.98,1.95c-10.78-6.94-19.33-15.78-25.47-26.37h16.03c-14.02-10.18-19.04-24.55-24.39-39.87
	c-4.61,15.33-10.46,28.67-22.3,38.59c0.26,0.48,0.48,0.93,0.74,1.38c4.48-0.32,8.93-0.67,13.44-1.02
	c-4.83,10.88-12.38,19.58-22.18,26.56c5.89,2.94,9.44,2.59,20.35-1.82c0.35,0.32,0.67,0.64,0.99,0.99
	c-8.8,8.8-17.57,17.63-26.47,26.53c6.56,2.21,11.42,11.42,20.35,4.86c-1.38,1.95-2.75,3.9-4.29,6.05
	c15.74,18.5,21.12,28.1,23.14,51.68c1.6,19.04,0.61,38.31,0.26,57.47c-0.13,6.18-0.64,12.96-3.26,18.34
	c-4.45,9.06-7.39,18.02-6.56,28.1c0.03,0.26-0.42,0.51-0.61,0.74h-80.04c4.77-13.15,4.22-24.9-7.14-33.95
	c-9.57-7.65-20.67-8.54-30.11-2.43c-12.96,8.38-15.1,20.64-11.04,35.23c-40.16-2.88-79.88-5.7-119.94-8.58v-5.89
	c0-22.3-0.1-44.64,0.1-66.98c0.03-4.48-1.12-6.14-5.86-6.02c-11.14,0.32-22.34,0.32-33.47,0c-4.67-0.13-5.98,1.41-5.95,5.95
	c0.22,22.53,0.1,45.03,0.1,67.52v5.47h-36.32c-0.1-1.12-0.26-1.95-0.26-2.82c-0.03-27.01-0.06-54.05,0.06-81.09
	c0-1.86,1.02-4,2.21-5.5c13.54-17.09,27.2-34.05,40.83-51.04c6.18-7.68,12.35-15.3,18.66-23.11c11.71,16.38,23.07,32.26,34.79,48.67
	c5.63-8.22,10.53-15.36,15.33-22.37c-13.02-16.13-26.08-32-38.69-48.23c-2.82-3.62-5.73-5.22-10.02-5.25
	c-32.1-0.06-64.19-0.22-96.29-0.1c-2.24,0-5.18,1.31-6.66,3.01c-23.9,28.19-47.62,56.55-71.36,84.9c-4.13,4.93-8.19,9.95-12.06,15.1
	c-2.34,3.14-1.82,5.6,2.56,6.11c3.42,0.42,6.85,0.67,10.43,1.02v81.54c-28.03,1.54-55.84,3.07-84.07,4.61v-47.81
	c8.13,2.75,16.29,5.92,25.41,2.82c-3.2-3.49-6.21-6.78-9.92-10.82c4.9,0.96,8.45,2.24,12,2.27c7.97,0.06,15.94-0.29,23.87-0.96
	c1.63-0.13,3.1-2.34,4.64-3.62c-1.18-1.34-2.14-3.07-3.58-3.97c-5.31-3.33-10.85-6.27-16.19-9.57
	c-8.61-5.28-17.44-10.34-24.87-19.81c14.02,6.4,26.56,3.2,39.11,0.32c7.04-1.63,12.67-5.5,17.25-11.1
	c11.2-13.79,22.5-27.52,33.73-41.35c6.34-7.81,12.54-15.71,18.66-23.39c-3.84-4.99-7.36-9.54-10.88-14.11
	c4.7,1.63,8.7,4.13,13.06,5.6c1.89,0.64,5.22-0.1,6.66-1.5c3.84-3.74,7.01-8.16,10.46-12.38c-13.09-9.82-25.15-20.35-35.62-34.53
	c14.05,7.1,27.01,11.87,41.6,5.54c-17.79-11.46-33.47-24.51-43.39-43.97c15.42,6.78,24.03,8.06,29.73,4.64
	c-18.34-14.72-30.85-29.47-32.26-37.92c13.7,4.13,13.7,4.13,19.1,2.02c-15.01-12.7-22.85-29.73-29.09-49.25
	c-5.79,19.97-13.98,37.19-30.18,49.41c0.19,0.58,0.42,1.15,0.64,1.73c6.56-1.31,13.12-2.59,20.23-4c-2.4,4.29-4.67,8.48-7.07,12.61
	c-6.34,10.94-16.16,18.46-26.4,26.4c11.49,3.9,20.67-0.99,30.63-6.18c-9.92,20.16-25.99,33.03-43.91,45.19
	c7.3,3.84,13.98,3.39,20.35,1.98c6.46-1.44,12.64-4.1,19.75-6.5c-2.18,2.88-3.94,5.38-5.82,7.78c-8.8,11.04-19.68,19.62-31.62,27.11
	c-5.06,3.17-9.76,6.94-15.49,11.07c16.8,6.75,30.79,1.22,45.54-5.28c-9.5,13.47-20.29,23.84-33.09,32.32
	c-17.34,11.49-17.22,11.68-30.27-4.58c-0.26-0.35-0.38-0.83-0.61-1.34c19.68,7.17,24.13,7.49,29.19,1.73
	c-3.94-2.88-7.97-5.57-11.65-8.7c-3.58-3.01-6.98-6.3-10.05-9.79c-3.07-3.49-5.66-7.36-8.48-11.07c8.51,4.1,14.72,4.7,20.29,1.18
	c-9.79-6.53-16.99-15.07-21.98-25.54c4.99,0.58,9.63,1.12,14.27,1.7c0.19-0.45,0.42-0.9,0.64-1.34
	c-12.58-9.95-17.76-24.19-22.88-39.55c-4.96,15.65-10.66,29.63-23.68,39.14c0.16,0.48,0.32,0.96,0.48,1.44
	c4.48-0.45,8.96-0.9,13.57-1.34c-3.68,11.62-12.38,19.14-22.53,26.21c8.42,3.36,15.2,0.26,21.99-2.69c0.35,0.48,0.7,0.99,1.02,1.47
	c-10.4,10.34-20.83,20.67-31.36,31.11c10.05,4.22,19.14-0.13,28.74-4.83c-10.46,15.2-25.19,24.55-40.42,35.23
	c12.1,4.06,22.5,4.51,32.77-1.38c0.32,0.58,0.61,1.15,0.93,1.76c-13.25,9.92-26.5,19.84-40.39,30.27
	c12.45,5.47,24.03,5.12,35.75-0.03c-10.85,10.56-23.39,18.53-36.45,25.79c-2.91,1.63-5.5,3.84-8.22,5.79
	c0.19,0.61,0.38,1.22,0.61,1.86c14.56,6.14,29.35,4.61,44.26-0.16c0.64,0.77,1.28,1.57,1.92,2.34c-4.48,3.14-8.96,6.3-13.41,9.44
	c0.42,0.83,0.86,1.66,1.28,2.46c8.03-1.31,16.1-2.66,24.35-4.03c-0.77,16.19-1.6,32.99-2.4,49.76c-6.94,1.5-13.41,2.75-19.81,4.32
	c-6.21,1.54-12.96,1.57-19.59,6.11h643.39c-0.45-1.28-0.58-2.37-0.9-2.43C756.82,498.85,743.31,496,729.74,493.12z M228.73,368.28
	c-2.3-2.08-4.54-4.06-6.27-5.6c10.08-3.62,20.48-7.36,29.92-10.75c-3.2,7.39-19.14,20.83-39.49,32.35
	c-5.41-4.8-10.94-9.66-16.45-14.56C207.1,373.02,222.97,372.83,228.73,368.28z M348.32,448.99H314.4v-27.65h33.92V448.99z
	 M607.56,490.24c-5.22,0.06-8.9-3.49-8.99-8.61c-0.06-4.86,3.87-9.09,8.64-9.22c4.93-0.13,9.41,4.26,9.38,9.15
	C616.59,486.53,612.75,490.18,607.56,490.24z"/>
<linearGradient id="SVGID_3_" gradientUnits="userSpaceOnUse" x1="632.5646" y1="175.0145" x2="612.9872" y2="522.8889">
	<stop  offset="0" style="stop-color:#FBB03B"/>
	<stop  offset="1" style="stop-color:#032A00"/>
</linearGradient>
<path class="st3" d="M606.19,275.1c0.32-0.48,0.61-1.02,1.12-1.92c-21.35,8.58-29.57,9.63-38.37,4.35c3.1-2.37,5.82-4.64,8.74-6.62
	c16.61-11.36,25.34-20.67,33.92-36.48c-9.7,4.8-18.95,8.99-30.88,5.57c14.88-10.3,26.91-21.86,33.25-39.07
	c-6.53,2.91-12.51,5.6-19.84,3.3c15.33-12.42,22.95-28.99,28.9-48.19c6.66,18.75,14.43,35.46,29.25,47.65
	c-3.9,2.14-3.9,2.14-18.85-1.34c7.07,16.1,18.43,28.1,34.5,37.76c-12.16,3.07-21.95,1.15-31.52-4.96
	c9.44,19.07,24.93,31.68,41.76,43.43c-14.08,5.73-26.53,2.24-39.23-4.22c4.42,4.9,8.61,10.08,13.38,14.62
	c4.99,4.77,10.4,9.25,16,13.31c5.44,3.97,11.36,7.26,18.34,11.65c-14.15,5.76-26.75,5.73-40.03,0.48c0.58,1.34,1.02,2.43,1.44,3.39
	H601.8c0.9-2.08,1.41-3.2,2.14-4.93c-13.5,4.86-26.47,6.5-41.09,1.09c3.1-2.4,5.18-4.32,7.55-5.79
	C584.39,299.35,597.19,289.31,606.19,275.1z"/>
<linearGradient id="SVGID_4_" gradientUnits="userSpaceOnUse" x1="459.2166" y1="77.1818" x2="462.1423" y2="258.5764">
	<stop  offset="0" style="stop-color:#FEC200"/>
	<stop  offset="1" style="stop-color:#FE6C00"/>
</linearGradient>
<circle class="st4" cx="460.74" cy="171.6" r="89.6"/>
<g>
	<path class="st0" d="M947.27,346.92c7.21,2.22,12.92,6.24,17.15,12.06c4.23,5.82,6.34,12.96,6.34,21.42
		c0,12.61-4.3,22.63-12.89,30.04c-8.6,7.42-20.86,11.12-36.8,11.12h-69.65v-139.1h71.94c13.03,0,23.18,3.43,30.46,10.29
		c7.28,6.86,10.92,15.56,10.92,26.09c0,6.52-1.53,12.23-4.57,17.15C957.11,340.92,952.81,344.56,947.27,346.92z M917.95,307h-36.18
		v33.06h35.35c5.27,0,9.63-1.49,13.1-4.47c3.46-2.98,5.2-6.96,5.2-11.96c0-4.85-1.63-8.84-4.89-11.96
		C927.27,308.55,923.08,307,917.95,307z M881.77,396.81h37.84c6.1,0,11.05-1.7,14.87-5.09c3.81-3.39,5.72-7.73,5.72-13
		c0-4.99-1.73-9.15-5.2-12.47c-3.47-3.33-7.83-4.99-13.1-4.99h-40.13V396.81z"/>
	<path class="st0" d="M1003.61,421.56v-139.1h30.98v139.1H1003.61z"/>
	<path class="st0" d="M1192.61,421.56h-36.59l-26.2-42.62h-24.95v42.62h-30.56v-139.1h67.78c14.14,0,25.75,4.51,34.83,13.51
		c9.08,9.01,13.62,20.38,13.62,34.1c0,10.54-2.6,19.68-7.8,27.45c-5.2,7.76-12.23,13.31-21.1,16.63L1192.61,421.56z M1136.26,308.66
		h-31.39v45.33h30.36c7.21,0,13.06-2.04,17.57-6.13c4.5-4.09,6.76-9.53,6.76-16.32c0-6.65-2.18-12.13-6.55-16.43
		C1148.63,310.81,1143.05,308.66,1136.26,308.66z"/>
	<path class="st0" d="M1288.25,423.84c-20.66,0-37.81-6.79-51.46-20.38c-13.65-13.58-20.48-30.7-20.48-51.36
		c0-20.65,6.83-37.8,20.48-51.46c13.65-13.65,30.88-20.48,51.67-20.48c14.83,0,28.03,3.67,39.61,11.02
		c11.57,7.35,19.99,17.19,25.26,29.52l-26.82,13.51c-3.33-7.9-8.42-14.21-15.28-18.92c-6.86-4.71-14.66-7.07-23.39-7.07
		c-11.78,0-21.66,4.19-29.63,12.58c-7.97,8.39-11.96,18.82-11.96,31.29c0,12.34,4.02,22.7,12.06,31.08
		c8.04,8.39,17.95,12.58,29.73,12.58c8.73,0,16.56-2.36,23.5-7.07c6.93-4.71,11.99-11.02,15.18-18.92l27.45,12.27
		c-5.13,12.75-13.59,22.91-25.37,30.46C1317.01,420.07,1303.49,423.84,1288.25,423.84z"/>
	<path class="st0" d="M1474.96,340.47v-58.01h31.19v139.1h-31.19v-52.6h-60.92v52.6h-31.19v-139.1h31.19v58.01H1474.96z"/>
	<path class="st0" d="M1546.06,421.56V312h30.98v109.56H1546.06z"/>
	<path class="st0" d="M1682.04,282.46c15.25,0,27.65,4.68,37.22,14.03s14.35,21.45,14.35,36.28c0,15.11-4.89,27.31-14.66,36.59
		c-9.77,9.29-22.77,13.93-38.98,13.93h-32.64v38.26h-30.56v-139.1H1682.04z M1647.32,357.1h29.94c7.49,0,13.58-2.25,18.3-6.76
		c4.71-4.5,7.07-10.29,7.07-17.36s-2.29-12.86-6.86-17.36c-4.57-4.5-10.47-6.76-17.67-6.76h-30.77V357.1z"/>
</g>
<g>
	<path class="st0" d="M876.35,484.98l15.72-25.44h9.58v45.15h-9.58v-28.34l-12.42,19.5h-6.61l-12.35-19.5v28.34h-9.65v-45.15h9.58
		L876.35,484.98z"/>
	<path class="st0" d="M935.61,505.43c-6.75,0-12.34-2.2-16.77-6.61c-4.43-4.41-6.65-9.96-6.65-16.67c0-6.7,2.22-12.27,6.65-16.7
		c4.43-4.43,10.02-6.65,16.77-6.65c6.7,0,12.27,2.22,16.7,6.65c4.43,4.43,6.65,10,6.65,16.7c0,6.7-2.22,12.26-6.65,16.67
		C947.88,503.23,942.31,505.43,935.61,505.43z M935.61,496.32c3.82,0,7.06-1.37,9.72-4.12c2.65-2.74,3.98-6.1,3.98-10.06
		c0-4-1.33-7.38-3.98-10.12c-2.66-2.74-5.89-4.12-9.72-4.12c-3.87,0-7.12,1.37-9.75,4.12c-2.63,2.74-3.95,6.12-3.95,10.12
		c0,4,1.32,7.37,3.95,10.09C928.49,494.96,931.74,496.32,935.61,496.32z"/>
	<path class="st0" d="M978.32,504.69v-36.58h-13.83v-8.57h37.66v8.57h-13.83v36.58H978.32z"/>
	<path class="st0" d="M1021.31,486.13v9.99H1045v8.57h-33.4v-45.15h32.66v8.57h-22.95v9.79h22.27v8.23H1021.31z"/>
	<path class="st0" d="M1087.71,504.69h-31.58v-45.15h10.06v36.44h21.53V504.69z"/>
	<path class="st0" d="M1147.37,496.05l9.18,8.64h-10.66l-3.98-3.71c-4,2.97-8.91,4.45-14.71,4.45c-5.4,0-9.44-1.19-12.11-3.58
		s-4.01-5.33-4.01-8.84c0-5.31,3.01-9.38,9.04-12.21c-3.55-3.46-5.33-6.91-5.33-10.33c0-3.24,1.28-5.99,3.85-8.27
		c2.56-2.27,6.05-3.41,10.46-3.41c4.23,0,7.58,1.1,10.05,3.31c2.47,2.21,3.71,4.99,3.71,8.37c0,2.66-0.81,4.87-2.43,6.65
		c-1.62,1.78-4.03,3.61-7.22,5.5l8.5,8.03c1.8-1.84,3.01-4.3,3.64-7.36h7.9C1152.88,487.97,1150.92,492.23,1147.37,496.05z
		 M1127.46,498.34c2.79,0,5.62-0.94,8.5-2.83l-9.92-9.25c-3.78,1.75-5.67,3.94-5.67,6.55c0,1.67,0.65,3,1.96,4.01
		C1123.64,497.84,1125.35,498.34,1127.46,498.34z M1128.88,465.68c-1.71,0-3.07,0.48-4.08,1.45c-1.01,0.97-1.52,2.15-1.52,3.54
		c0,1.08,0.35,2.1,1.05,3.07c0.7,0.97,1.76,2.13,3.21,3.48c4.5-2.2,6.75-4.41,6.75-6.61c0-1.44-0.5-2.62-1.49-3.54
		C1131.8,466.14,1130.5,465.68,1128.88,465.68z"/>
	<path class="st0" d="M1199.27,505.43c-6.7,0-12.27-2.2-16.7-6.61c-4.43-4.41-6.65-9.96-6.65-16.67c0-6.7,2.21-12.27,6.65-16.7
		c4.43-4.43,10.02-6.65,16.77-6.65c4.81,0,9.1,1.19,12.86,3.58c3.76,2.38,6.49,5.58,8.2,9.58l-8.71,4.39
		c-1.08-2.56-2.73-4.61-4.96-6.14c-2.23-1.53-4.76-2.29-7.59-2.29c-3.82,0-7.03,1.36-9.62,4.08c-2.59,2.72-3.88,6.11-3.88,10.16
		c0,4,1.3,7.37,3.91,10.09c2.61,2.72,5.83,4.08,9.65,4.08c2.83,0,5.38-0.76,7.63-2.29c2.25-1.53,3.89-3.58,4.93-6.14l8.91,3.98
		c-1.67,4.14-4.41,7.44-8.23,9.89C1208.6,504.2,1204.21,505.43,1199.27,505.43z"/>
	<path class="st0" d="M1269.45,504.69h-10.59l-2.77-8.84h-17.95l-2.97,8.84h-10.66l16.8-45.15h11.74L1269.45,504.69z
		 M1253.59,487.55l-6.41-19.37l-6.48,19.37H1253.59z"/>
	<path class="st0" d="M1316.55,504.69h-11.88l-8.5-13.83h-8.1v13.83h-9.92v-45.15h22c4.59,0,8.36,1.46,11.3,4.39
		c2.95,2.92,4.42,6.61,4.42,11.07c0,3.42-0.84,6.39-2.53,8.91c-1.69,2.52-3.97,4.32-6.85,5.4L1316.55,504.69z M1298.26,468.04
		h-10.19v14.71h9.85c2.34,0,4.24-0.66,5.7-1.99s2.19-3.09,2.19-5.3c0-2.16-0.71-3.94-2.13-5.33S1300.47,468.04,1298.26,468.04z"/>
	<path class="st0" d="M1366.7,504.69h-10.59l-2.77-8.84h-17.95l-2.97,8.84h-10.66l16.8-45.15h11.74L1366.7,504.69z M1350.84,487.55
		l-6.41-19.37l-6.48,19.37H1350.84z"/>
	<path class="st0" d="M1389.44,493.21l11.27-33.67h11.27l-16.67,45.15h-11.95l-16.53-45.15h11.34L1389.44,493.21z"/>
	<path class="st0" d="M1456.92,504.69h-10.59l-2.77-8.84h-17.95l-2.97,8.84h-10.66l16.8-45.15h11.74L1456.92,504.69z
		 M1441.06,487.55l-6.41-19.37l-6.48,19.37H1441.06z"/>
	<path class="st0" d="M1496.54,489.37v-29.83h9.45v45.15h-9.18l-21.66-29.49v29.49h-9.52v-45.15h9.38L1496.54,489.37z"/>
	<path class="st0" d="M1558.15,459.54c4.95,0,8.98,1.52,12.08,4.56s4.66,6.96,4.66,11.78c0,4.9-1.59,8.86-4.76,11.88
		c-3.17,3.01-7.39,4.52-12.65,4.52h-10.59v12.42h-9.92v-45.15H1558.15z M1546.88,483.77h9.72c2.43,0,4.41-0.73,5.94-2.19
		c1.53-1.46,2.29-3.34,2.29-5.63c0-2.29-0.74-4.17-2.23-5.64c-1.48-1.46-3.4-2.19-5.74-2.19h-9.99V483.77z"/>
	<path class="st0" d="M1622.46,504.69h-10.59l-2.77-8.84h-17.95l-2.97,8.84h-10.66l16.8-45.15h11.74L1622.46,504.69z M1606.6,487.55
		l-6.41-19.37l-6.48,19.37H1606.6z"/>
	<path class="st0" d="M1669.57,504.69h-11.88l-8.5-13.83h-8.1v13.83h-9.92v-45.15h22c4.59,0,8.36,1.46,11.3,4.39
		c2.95,2.92,4.42,6.61,4.42,11.07c0,3.42-0.84,6.39-2.53,8.91c-1.69,2.52-3.97,4.32-6.85,5.4L1669.57,504.69z M1651.28,468.04
		h-10.19v14.71h9.85c2.34,0,4.24-0.66,5.7-1.99s2.19-3.09,2.19-5.3c0-2.16-0.71-3.94-2.13-5.33S1653.48,468.04,1651.28,468.04z"/>
	<path class="st0" d="M1699.46,482.28l19.97,22.41h-12.55l-16.94-19.17v19.17h-10.06v-45.15h10.06v20.11l17.14-20.11h11.95
		L1699.46,482.28z"/>
</g>
</svg>
